<svg width="20" height="20" viewBox="0 0 20 20" fill="none" xmlns="http://www.w3.org/2000/svg">
<g clip-path="url(#clip0_108_2)">
<path d="M11.603 9.833L9.35703 8.785C9.16103 8.694 9.00002 8.796 9.00002 9.013V10.987C9.00002 11.204 9.16103 11.306 9.35703 11.215L11.602 10.167C11.799 10.075 11.799 9.925 11.603 9.833ZM10 0.400002C4.69802 0.400002 0.400024 4.698 0.400024 10C0.400024 15.302 4.69802 19.6 10 19.6C15.302 19.6 19.6 15.302 19.6 10C19.6 4.698 15.302 0.400002 10 0.400002ZM10 13.9C5.08602 13.9 5.00002 13.457 5.00002 10C5.00002 6.543 5.08602 6.1 10 6.1C14.914 6.1 15 6.543 15 10C15 13.457 14.914 13.9 10 13.9Z" fill="#F8F8F8"/>
</g>
<defs>
<clipPath id="clip0_108_2">
<rect width="20" height="20" fill="white"/>
</clipPath>
</defs>
</svg>
